<?xml version="1.0" encoding="utf-8"?>
<svg version="1.1" xmlns="http://www.w3.org/2000/svg" xmlns:xlink="http://www.w3.org/1999/xlink" height="32" width="37">
  <defs>
    <path id="path-0" opacity="1" d="M15.015217391304759,10.131521739130221 C15.715217391304577,10.131521739130221 16.293478260869506,10.679347826086769 16.293478260869506,11.394565217391118 C16.293478260869506,12.109782608695468 15.707608695652198,12.657608695652016 15.015217391304759,12.657608695652016 C14.315217391304486,12.657608695652016 13.736956521739558,12.109782608695468 13.736956521739558,11.394565217391118 C13.736956521739558,10.671739130434617 14.322826086956866,10.131521739130221 15.015217391304759,10.131521739130221 L15.015217391304759,10.131521739130221ZM22.502173913043407,13.66956521739121 C23.689130434781873,13.66956521739121 24.67065217391246,14.5141304347826 24.67065217391246,16.13478260869556 C24.67065217391246,16.545652173912913 24.61739130434762,17.002173913043407 24.465217391303668,17.511956521739194 L23.864130434782055,19.6804347826087 C23.810869565217217,19.908695652173947 23.77282608695623,20.098913043478206 23.77282608695623,20.266304347826235 C23.77282608695623,20.646739130434753 23.924999999999272,20.829347826087087 24.20652173913004,20.829347826087087 C24.488043478260806,20.829347826087087 24.84565217391264,20.623913043478296 25.26413043478169,19.475000000000136 L26.093478260869233,19.794565217391437 C25.591304347825826,21.498913043478296 24.708695652173446,22.214130434782646 23.590217391303668,22.214130434782646 C22.289130434782237,22.214130434782646 21.665217391304395,21.43804347826085 21.665217391304395,20.388043478260897 C21.665217391304395,20.0836956521739 21.703260869564474,19.7641304347826 21.79456521739121,19.4445652173913 L22.41847826086905,17.222826086956502 C22.494565217391028,16.97934782608695 22.509782608694877,16.751086956521704 22.509782608694877,16.545652173912913 C22.509782608694877,15.830434782608563 22.076086956521067,15.396739130434753 21.37608695652125,15.396739130434753 C20.49347826086887,15.396739130434753 19.907608695652016,16.013043478260897 19.60326086956502,17.238043478260806 L18.40869565217372,22.054347826086996 L16.30108695652143,22.054347826086996 L16.68152104213914,20.547827225942456 C16.05760805532691,21.567391780342177 15.197825690294849,22.206521739130494 14.132608695651925,22.206521739130494 C12.854347826086723,22.206521739130494 12.245652173913186,21.47608695652184 12.245652173913186,20.35760869565229 C12.245652173913186,20.07608695652175 12.28369565217372,19.741304347826144 12.359782608695696,19.421739130434844 L13.318478260869597,15.510869565217263 L11.834782608695605,15.510869565217263 L12.28369565217372,13.836956521739012 L15.86739130434762,13.836956521739012 L14.452173913043225,19.43695652173915 C14.3608695652174,19.794565217391437 14.322826086956411,20.091304347826053 14.322826086956411,20.296739130434844 C14.322826086956411,20.654347826087132 14.497826086956593,20.76086956521749 14.771739130434526,20.821739130434935 C14.792823513848361,20.82653103575626 14.832498221172045,20.830477926354433 14.887205218313738,20.830477926354433 C15.266823258278691,20.830477926354206 16.370265451733758,20.64043005070471 17.00869565217363,19.223913043478206 L17.93695652173892,15.518478260869415 L16.4304347826087,15.518478260869415 L16.879347826086814,13.844565217391164 L20.105434782608427,13.844565217391164 L19.694565217390846,15.731521739130358 C20.25760869565147,14.673913043478251 21.391304347826008,13.66956521739121 22.502173913043407,13.66956521739121 L22.502173913043407,13.66956521739121ZM9.902173913043498,6 C8.852173913043316,6 8,6.8521739130435435 8,7.902173913043498 L8,25.097826086956502 C8,26.147826086956456 8.852173913043316,27 9.902173913043498,27 L27.097826086956957,27 C28.14782608695623,27 29,26.147826086956456 29,25.097826086956502 L29,7.902173913043498 C29,6.8521739130435435 28.14782608695623,6 27.097826086956957,6 L9.902173913043498,6Z"/>
  </defs>
  <g>
    <g>
      <use xlink:href="#path-0" fill="rgb(255,255,255)" fill-opacity="1"/>
    </g>
  </g>
</svg>