<?xml version="1.0" encoding="utf-8"?>
<svg version="1.1" xmlns="http://www.w3.org/2000/svg" xmlns:xlink="http://www.w3.org/1999/xlink" height="32" width="56">
  <defs>
    <path id="path-0" opacity="1" d="M43.8540466101695,12.238147138964578 C40.87661016949153,12.238147138964578 38.4064406779661,14.682615803814715 38.4064406779661,17.62907356948229 C38.4064406779661,18.938610354223435 37.32574152542374,20.008065395095368 36.00243644067797,20.008065395095368 C34.6791313559322,20.008065395095368 33.598432203389834,18.938610354223435 33.598432203389834,17.62907356948229 L33.598432203389834,7 L30.554830508474573,7 L30.554830508474573,12.783787465940055 C29.827012711864406,12.43457765667575 29.010974576271185,12.238147138964578 28.15082627118644,12.238147138964578 C26.60697033898305,12.238147138964578 25.2175,12.871089918256132 24.225021186440678,13.896893732970028 C23.232542372881355,12.871089918256132 21.843072033898302,12.238147138964578 20.299216101694917,12.238147138964578 C18.755360169491528,12.238147138964578 17.365889830508475,12.871089918256132 16.373411016949152,13.896893732970028 C15.38093220338983,12.871089918256132 13.99146186440678,12.238147138964578 12.447605932203391,12.238147138964578 C9.448114406779661,12.238147138964578 7,14.660790190735696 7,17.62907356948229 L7,20.008065395095368 L10.043601694915255,20.008065395095368 L10.043601694915255,17.62907356948229 C10.043601694915255,16.319536784741146 11.124300847457626,15.250081743869211 12.447605932203391,15.250081743869211 C13.770911016949153,15.250081743869211 14.851610169491526,16.319536784741146 14.851610169491526,17.62907356948229 L14.851610169491526,20.008065395095368 L17.895211864406782,20.008065395095368 L17.895211864406782,17.62907356948229 C17.895211864406782,16.319536784741146 18.97591101694915,15.250081743869211 20.299216101694917,15.250081743869211 C21.62252118644068,15.250081743869211 22.70322033898305,16.319536784741146 22.70322033898305,17.62907356948229 C22.70322033898305,20.531880108991828 25.085169491525424,23.02 28.15082627118644,23.02 L28.15082627118644,20.008065395095368 C26.827521186440677,20.008065395095368 25.746822033898304,18.938610354223435 25.746822033898304,17.62907356948229 C25.746822033898304,16.319536784741146 26.827521186440677,15.250081743869211 28.15082627118644,15.250081743869211 C29.474131355932204,15.250081743869211 30.554830508474573,16.319536784741146 30.554830508474573,17.62907356948229 C30.554830508474573,20.59735694822888 33.00294491525423,23.02 36.00243644067796,23.02 C39.00192796610169,23.02 41.45004237288135,20.59735694822888 41.45004237288135,17.62907356948229 C41.45004237288135,16.319536784741146 42.53074152542372,15.250081743869211 43.85404661016949,15.250081743869211 C44.780360169491516,15.250081743869211 45.57434322033898,15.77389645776567 45.99338983050847,16.537792915531334 L48.64,15.05365122615804 C47.71368644067797,13.373079019073572 45.90516949152543,12.238147138964578 43.8540466101695,12.238147138964578Z"/>
  </defs>
  <g>
    <g opacity="1">
      <g>
        <use xlink:href="#path-0" fill="rgb(255,255,255)" fill-opacity="1"/>
      </g>
    </g>
  </g>
</svg>