<?xml version="1.0" encoding="UTF-8"?>
<svg width="24px" height="24px" viewBox="0 0 24 24" version="1.1" xmlns="http://www.w3.org/2000/svg" xmlns:xlink="http://www.w3.org/1999/xlink">
    <!-- Generator: Sketch 52 (66869) - http://www.bohemiancoding.com/sketch -->
    <title>icon-download</title>
    <desc>Created with Sketch.</desc>
    <g id="icon-download" stroke="none" stroke-width="1" fill="none" fill-rule="evenodd">
        <path d="M13,15.5857864 L17.2928932,11.2928932 C17.6834175,10.9023689 18.3165825,10.9023689 18.7071068,11.2928932 C19.0976311,11.6834175 19.0976311,12.3165825 18.7071068,12.7071068 L12.7071068,18.7071068 C12.3165825,19.0976311 11.6834175,19.0976311 11.2928932,18.7071068 L5.29289322,12.7071068 C4.90236893,12.3165825 4.90236893,11.6834175 5.29289322,11.2928932 C5.68341751,10.9023689 6.31658249,10.9023689 6.70710678,11.2928932 L11,15.5857864 L11,2 C11,1.44771525 11.4477153,1 12,1 C12.5522847,1 13,1.44771525 13,2 L13,15.5857864 Z M22,22 C22.5522847,22 23,22.4477153 23,23 C23,23.5522847 22.5522847,24 22,24 L2,24 C1.44771525,24 1,23.5522847 1,23 C1,22.4477153 1.44771525,22 2,22 L22,22 Z" id="icon" fill="#FF3366" fill-rule="nonzero"></path>
    </g>
</svg>