<svg xmlns="http://www.w3.org/2000/svg" xmlns:xlink="http://www.w3.org/1999/xlink" height="32" width="56"><defs><path id="a" opacity="1" d="M43.854 12.238c-2.977 0-5.448 2.445-5.448 5.391 0 1.31-1.08 2.38-2.404 2.38-1.323 0-2.404-1.07-2.404-2.38V7h-3.043v5.784a5.545 5.545 0 0 0-2.404-.546 5.437 5.437 0 0 0-3.926 1.659 5.437 5.437 0 0 0-3.926-1.659 5.437 5.437 0 0 0-3.926 1.659 5.437 5.437 0 0 0-3.925-1.659c-3 0-5.448 2.423-5.448 5.391v2.38h3.044v-2.38c0-1.31 1.08-2.379 2.404-2.379 1.323 0 2.404 1.07 2.404 2.38v2.378h3.043V17.63c0-1.31 1.08-2.379 2.404-2.379 1.324 0 2.404 1.07 2.404 2.38 0 2.902 2.382 5.39 5.448 5.39v-3.012c-1.323 0-2.404-1.07-2.404-2.379 0-1.31 1.08-2.379 2.404-2.379 1.323 0 2.404 1.07 2.404 2.38 0 2.967 2.448 5.39 5.447 5.39 3 0 5.448-2.423 5.448-5.39 0-1.31 1.08-2.38 2.404-2.38.926 0 1.72.524 2.14 1.288l2.646-1.484a5.468 5.468 0 0 0-4.786-2.816z"/></defs><use xlink:href="#a" fill="#FFF"/></svg>