<svg xmlns="http://www.w3.org/2000/svg" xmlns:xlink="http://www.w3.org/1999/xlink" height="32" width="37"><defs><path id="a" opacity="1" d="M15.015 10.132c.7 0 1.278.547 1.278 1.263 0 .715-.585 1.263-1.278 1.263a1.263 1.263 0 1 1 0-2.526zm7.487 3.538c1.187 0 2.169.844 2.169 2.465 0 .41-.054.867-.206 1.377l-.6 2.168a2.697 2.697 0 0 0-.092.586c0 .38.152.563.434.563.281 0 .639-.205 1.057-1.354l.83.32c-.503 1.704-1.385 2.42-2.504 2.42-1.3 0-1.925-.777-1.925-1.827 0-.304.038-.624.13-.943l.623-2.222a2.22 2.22 0 0 0 .092-.677c0-.716-.434-1.15-1.134-1.15-.883 0-1.468.617-1.773 1.842l-1.194 4.816H16.3l.38-1.506c-.623 1.02-1.483 1.659-2.548 1.659-1.279 0-1.887-.73-1.887-1.85 0-.28.038-.616.114-.935l.958-3.911h-1.483l.449-1.674h3.583l-1.415 5.6c-.091.358-.13.654-.13.86 0 .357.176.464.45.525.02.005.06.008.115.008.38 0 1.483-.19 2.122-1.606l.928-3.706H16.43l.45-1.673h3.225l-.41 1.887c.563-1.058 1.696-2.062 2.807-2.062zM9.902 6C8.852 6 8 6.852 8 7.902v17.196C8 26.148 8.852 27 9.902 27h17.196c1.05 0 1.902-.852 1.902-1.902V7.902C29 6.852 28.148 6 27.098 6H9.902z"/></defs><use xlink:href="#a" fill="#FFF"/></svg>