<?xml version="1.0" encoding="UTF-8"?>
<svg width="158px" height="90px" viewBox="0 0 158 90" version="1.1" xmlns="http://www.w3.org/2000/svg" xmlns:xlink="http://www.w3.org/1999/xlink">
    <!-- Generator: Sketch 51.3 (57544) - http://www.bohemiancoding.com/sketch -->
    <title>logo-dff</title>
    <desc>Created with Sketch.</desc>
    <defs></defs>
    <g id="logo-dff" stroke="none" stroke-width="1" fill="none" fill-rule="evenodd">
        <path d="M54.828,68.112 L50.736,68.112 L50.736,70.176 L54.552,70.176 L54.552,71.724 L50.736,71.724 L50.736,75 L49.02,75 L49.02,66.528 L54.828,66.528 L54.828,68.112 Z M60.504,68.688 L62.088,68.688 L62.088,75 L60.6,75 L60.6,74.352 C60.168,74.868 59.556,75.192 58.752,75.192 C57.456,75.192 56.484,74.292 56.244,73.392 L56.244,68.688 L57.828,68.688 L57.828,72.996 C57.984,73.368 58.404,73.74 59.172,73.74 C59.892,73.74 60.372,73.332 60.504,72.972 L60.504,68.688 Z M67.3680001,68.496 C68.6880001,68.496 69.6600001,69.372 69.9000001,70.26 L69.9000001,75 L68.3160001,75 L68.3160001,70.668 C68.1600001,70.308 67.6920001,69.936 66.9360001,69.936 C66.2040001,69.936 65.7120001,70.332 65.5800001,70.68 L65.5800001,75 L63.9960001,75 L63.9960001,68.688 L65.4840001,68.688 L65.4840001,69.336 C65.9280001,68.82 66.5520001,68.496 67.3680001,68.496 Z M76.2960001,66.24 L77.8800001,66.24 L77.8800001,75 L76.3800001,75 L76.3800001,74.364 C75.9120001,74.88 75.2400001,75.192 74.4000001,75.192 C72.9600001,75.192 71.8680001,74.28 71.4960001,73.14 L71.4960001,70.524 C71.8680001,69.384 72.9600001,68.484 74.4000001,68.484 C75.1920001,68.484 75.8280001,68.76 76.2960001,69.204 L76.2960001,66.24 Z M76.2960001,72.948 L76.2960001,70.728 C76.0440001,70.32 75.4920001,69.936 74.7120001,69.936 C73.8360001,69.936 73.2600001,70.452 73.0800001,70.92 L73.0800001,72.756 C73.2600001,73.236 73.8360001,73.752 74.7120001,73.752 C75.4920001,73.752 76.0440001,73.368 76.2960001,72.948 Z" id="Fund" fill="#FFFFFF"></path>
        <path d="M55.476,17.174 C59.13,17.174 62.07,19.274 62.994,22.004 L62.994,27.17 C62.07,29.9 59.13,32 55.476,32 L49.785,32 L49.785,17.174 L55.476,17.174 Z M59.949,26.393 L59.949,22.781 C59.508,21.29 57.702,19.946 55.476,19.946 L52.788,19.946 L52.788,29.228 L55.476,29.228 C57.702,29.228 59.508,27.884 59.949,26.393 Z M74.145,28.22 L76.644,29.186 C75.762,31.139 73.788,32.336 71.184,32.336 C68.412,32.336 66.333,30.761 65.64,28.745 L65.64,24.167 C66.333,22.172 68.37,20.597 71.121,20.597 C73.83,20.597 75.846,22.172 76.56,24.167 L76.56,27.38 L68.349,27.38 L68.349,28.199 C68.622,28.997 69.63,29.921 71.205,29.921 C72.864,29.921 73.746,29.081 74.145,28.22 Z M71.1,22.991 C69.609,22.991 68.622,23.873 68.349,24.692 L68.349,25.301 L73.851,25.301 L73.851,24.692 C73.557,23.873 72.591,22.991 71.1,22.991 Z M83.616,32.315 C81.222,32.315 79.29,31.223 78.639,29.459 L81.012,28.493 C81.516,29.459 82.545,29.963 83.616,29.963 C84.645,29.963 85.275,29.606 85.527,29.165 L85.527,28.409 C85.38,28.115 85.044,27.926 84.54,27.779 C83.763,27.569 82.587,27.569 81.474,27.212 C80.256,26.813 79.458,26.141 79.017,25.259 L79.017,23.012 C79.668,21.71 81.411,20.618 83.574,20.618 C85.905,20.618 87.69,21.71 88.341,23.39 L85.989,24.314 C85.485,23.411 84.624,22.97 83.553,22.97 C82.608,22.97 81.936,23.348 81.726,23.81 L81.726,24.44 C81.831,24.734 82.146,24.944 82.65,25.07 C83.385,25.259 84.624,25.259 85.695,25.616 C86.955,26.036 87.795,26.708 88.194,27.569 L88.194,29.921 C87.564,31.244 85.842,32.315 83.616,32.315 Z M92.394,19.4 C91.596,19.4 90.987,19.043 90.693,18.539 L90.693,17.132 C90.987,16.628 91.596,16.271 92.394,16.271 C93.213,16.271 93.822,16.628 94.095,17.132 L94.095,18.539 C93.822,19.043 93.213,19.4 92.394,19.4 Z M91.008,32 L91.008,20.954 L93.78,20.954 L93.78,32 L91.008,32 Z M105.12,20.954 L107.724,20.954 L107.724,32.399 C106.989,34.436 104.952,35.906 102.096,35.906 C99.429,35.906 97.35,34.667 96.594,32.672 L99.177,31.832 C99.513,32.63 100.458,33.491 102.138,33.491 C103.671,33.491 104.658,32.693 104.952,31.811 L104.952,30.11 C104.133,30.845 103.041,31.307 101.697,31.307 C99.177,31.307 97.329,29.753 96.699,27.863 L96.699,24.125 C97.329,22.151 99.177,20.618 101.697,20.618 C103.125,20.618 104.28,21.122 105.12,21.962 L105.12,20.954 Z M102.285,28.829 C103.608,28.829 104.553,28.136 104.952,27.422 L104.952,24.545 C104.553,23.831 103.608,23.159 102.285,23.159 C100.773,23.159 99.744,23.999 99.471,24.797 L99.471,27.191 C99.744,27.989 100.773,28.829 102.285,28.829 Z M116.901,20.618 C119.211,20.618 120.912,22.151 121.332,23.705 L121.332,32 L118.56,32 L118.56,24.419 C118.287,23.789 117.468,23.138 116.145,23.138 C114.864,23.138 114.003,23.831 113.772,24.44 L113.772,32 L111,32 L111,20.954 L113.604,20.954 L113.604,22.088 C114.381,21.185 115.473,20.618 116.901,20.618 Z M59.949,44.946 L52.788,44.946 L52.788,48.558 L59.466,48.558 L59.466,51.267 L52.788,51.267 L52.788,57 L49.785,57 L49.785,42.174 L59.949,42.174 L59.949,44.946 Z M67.866,57.336 C65.073,57.336 62.91,55.782 62.196,53.766 L62.196,49.167 C62.91,47.172 65.073,45.597 67.866,45.597 C70.659,45.597 72.801,47.172 73.515,49.167 L73.515,53.766 C72.801,55.782 70.659,57.336 67.866,57.336 Z M67.866,54.816 C69.399,54.816 70.47,53.913 70.743,53.094 L70.743,49.86 C70.47,49.02 69.399,48.117 67.866,48.117 C66.333,48.117 65.262,49.02 64.968,49.86 L64.968,53.094 C65.262,53.913 66.333,54.816 67.866,54.816 Z M82.041,45.786 C82.356,45.786 82.755,45.849 82.986,45.954 L82.986,48.642 L82.251,48.642 C80.298,48.642 79.458,49.566 79.206,50.259 L79.206,57 L76.434,57 L76.434,45.954 L79.038,45.954 L79.038,47.697 C79.584,46.626 80.529,45.786 82.041,45.786 Z M99.198,45.954 L101.907,45.954 L101.907,46.479 L98.463,57 L95.502,57 L93.213,49.734 L90.924,57 L87.942,57 L84.477,46.479 L84.477,45.954 L87.249,45.954 L89.58,53.472 L91.953,45.954 L94.494,45.954 L96.888,53.43 L99.198,45.954 Z M108.879,45.597 C111.315,45.597 113.31,46.836 113.94,48.6 L113.94,57 L111.399,57 L111.399,55.887 C110.664,56.79 109.488,57.315 108.081,57.315 C106.023,57.315 104.49,56.37 103.965,55.278 L103.965,52.695 C104.595,51.351 106.317,50.721 108.249,50.469 C110.139,50.238 111.021,50.07 111.231,49.755 L111.231,49.251 C110.916,48.642 110.118,48.075 108.858,48.075 C107.577,48.075 106.611,48.81 106.149,49.713 L103.692,48.663 C104.427,46.962 106.443,45.597 108.879,45.597 Z M111.231,53.934 L111.231,51.708 C110.853,52.023 109.95,52.275 108.711,52.506 C107.43,52.737 106.884,52.968 106.632,53.409 L106.632,54.312 C106.968,54.711 107.556,55.047 108.69,55.047 C109.803,55.047 110.769,54.585 111.231,53.934 Z M122.739,45.786 C123.054,45.786 123.453,45.849 123.684,45.954 L123.684,48.642 L122.949,48.642 C120.996,48.642 120.156,49.566 119.904,50.259 L119.904,57 L117.132,57 L117.132,45.954 L119.736,45.954 L119.736,47.697 C120.282,46.626 121.227,45.786 122.739,45.786 Z M133.827,41.67 L136.599,41.67 L136.599,57 L133.974,57 L133.974,55.887 C133.155,56.79 131.979,57.336 130.509,57.336 C127.989,57.336 126.078,55.74 125.427,53.745 L125.427,49.167 C126.078,47.172 127.989,45.597 130.509,45.597 C131.895,45.597 133.008,46.08 133.827,46.857 L133.827,41.67 Z M133.827,53.409 L133.827,49.524 C133.386,48.81 132.42,48.138 131.055,48.138 C129.522,48.138 128.514,49.041 128.199,49.86 L128.199,53.073 C128.514,53.913 129.522,54.816 131.055,54.816 C132.42,54.816 133.386,54.144 133.827,53.409 Z" id="Design-Forward" fill="#FFFFFF"></path>
        <path d="M0,0 L16,0 L16,16 L0,0 Z M0,16 L16,16 L16,32 L0,16 Z M0,32 L16,32 L16,48 L0,32 Z M16,0 L32,0 L32,16 L16,0 Z M16,16 L32,16 L32,32 L16,16 Z" id="triangles" fill="#FFFFFF" fill-rule="nonzero"></path>
    </g>
</svg>