<?xml version="1.0" encoding="utf-8"?>
<svg id="target" version="1.1" xmlns="http://www.w3.org/2000/svg" xmlns:xlink="http://www.w3.org/1999/xlink" height="40" width="40">
  <defs>
    <path id="path-0" opacity="1" d="M17.39636363636373,15.970909090909117 L23.912727272727366,19.869090909090925 L17.39636363636373,23.825454545454566 L17.39636363636373,15.970909090909117 L17.39636363636373,15.970909090909117ZM20.01454545454544,12.130909090908972 C20.01454545454544,12.130909090908972 15.650909090909082,12.130909090908972 12.683636363636353,12.33454545454535 C12.276363636363627,12.39272727272718 11.403636363636352,12.39272727272718 10.5890909090909,13.265454545454453 C9.919999999999987,13.934545454545347 9.716363636363624,15.476363636363548 9.716363636363624,15.476363636363548 C9.716363636363624,15.476363636363548 9.512727272727261,17.279999999999923 9.512727272727261,19.112727272727184 L9.512727272727261,20.799999999999898 C9.512727272727261,22.603636363636273 9.716363636363624,24.43636363636353 9.716363636363624,24.43636363636353 C9.716363636363624,24.43636363636353 9.919999999999987,25.978181818181696 10.5890909090909,26.64727272727263 C11.403636363636352,27.578181818181733 12.392727272727264,27.519999999999897 12.858181818181805,27.665454545454445 C14.545454545454533,27.869090909090822 19.985454545454537,27.869090909090822 19.985454545454537,27.869090909090822 C19.985454545454537,27.869090909090822 24.349090909090897,27.869090909090822 27.316363636363633,27.607272727272647 C27.72363636363636,27.549090909090815 28.596363636363627,27.549090909090815 29.410909090909087,26.676363636363543 C30.07999999999999,26.00727272727265 30.28363636363636,24.46545454545445 30.28363636363636,24.46545454545445 C30.28363636363636,24.46545454545445 30.487272727272725,22.66181818181807 30.487272727272725,20.829090909090812 L30.487272727272725,19.11272727272715 C30.487272727272718,17.221818181818062 30.28363636363636,15.476363636363516 30.28363636363636,15.476363636363516 C30.28363636363636,15.476363636363516 30.079999999999984,13.934545454545347 29.410909090909087,13.26545454545442 C28.596363636363627,12.334545454545315 27.72363636363636,12.334545454545315 27.316363636363626,12.334545454545315 C24.378181818181808,12.130909090908972 20.01454545454544,12.130909090908972 20.01454545454544,12.130909090908972 L20.01454545454544,12.130909090908972Z"/>
  </defs>
  <g>
    <g opacity="1">
      <use xlink:href="#path-0" fill="rgb(255,255,255)" fill-opacity="1"/>
    </g>
  </g>
</svg>
