<?xml version="1.0" encoding="utf-8"?>
<svg id="target" version="1.1" xmlns="http://www.w3.org/2000/svg" xmlns:xlink="http://www.w3.org/1999/xlink" height="40" width="40">
  <defs>
    <path id="path-0" opacity="1" d="M27.304347826086957,12 L12.695652173913043,12 C12.347826086956522,12 12,12.347826086956522 12,12.695652173913043 L12,27.304347826086957 C12,27.652173913043477 12.278260869565218,28 12.695652173913043,28 L20.48695652173913,28 L20.48695652173913,22.017391304347825 L18.469565217391303,22.017391304347825 L18.469565217391303,19.51304347826087 L20.48695652173913,19.51304347826087 L20.48695652173913,17.495652173913044 C20.48695652173913,15.408695652173913 21.808695652173913,14.434782608695652 23.617391304347827,14.434782608695652 C24.52173913043478,14.434782608695652 25.217391304347828,14.504347826086956 25.495652173913044,14.504347826086956 L25.495652173913044,16.66086956521739 L24.243478260869566,16.66086956521739 C23.269565217391303,16.66086956521739 22.991304347826087,17.14782608695652 22.991304347826087,17.843478260869563 L22.991304347826087,19.51304347826087 L25.495652173913044,19.51304347826087 L25.008695652173913,22.017391304347825 L22.991304347826087,22.017391304347825 L23.060869565217395,28 L27.304347826086957,28 C27.652173913043477,28 28,27.721739130434784 28,27.304347826086957 L28,12.695652173913043 C27.930434782608693,12.347826086956522 27.652173913043477,12 27.304347826086957,12Z"/>
  </defs>
  <g>
    <g opacity="1">
      <use xlink:href="#path-0" fill="rgb(255,255,255)" fill-opacity="1"/>
    </g>
  </g>
</svg>
