<?xml version="1.0" encoding="utf-8"?>
<svg id="target" viewBox="0 0 40 40" version="1.1" xmlns="http://www.w3.org/2000/svg" xmlns:xlink="http://www.w3.org/1999/xlink">
  <defs>
    <path id="path-0" opacity="1" d="M28.917241379310365,13.706896551724144 C28.236161335187784,14.043103448275856 27.50269051844038,14.172413793103441 26.664438156443357,14.301724137931028 C27.476495132127976,13.83620689655173 28.078989017313337,13.163793103448276 28.314747494125,12.206896551724126 C27.633667450002417,12.672413793103425 26.79541508800539,12.87931034482758 25.852381180758734,13.137931034482753 C25.171301136636153,12.465517241379299 24.071094911515054,12 22.997084072706365,12 C20.87525778140139,12 19.120166898470117,13.75862068965516 19.120166898470117,15.827586206896541 C19.120166898470117,16.163793103448253 19.120166898470117,16.422413793103424 19.251143830032152,16.62931034482758 C16.05530669991849,16.499999999999993 13.304791137115746,15.000000000000007 11.313941777372808,12.672413793103454 C10.973401755311516,13.267241379310338 10.84242482374948,13.810344827586206 10.84242482374948,14.534482758620708 C10.84242482374948,15.801724137931046 11.523504867872065,16.965517241379324 12.623711092993162,17.689655172413822 C12.021217207807798,17.689655172413822 11.47111409524725,17.482758620689694 10.84242482374948,17.224137931034523 C10.84242482374948,19.08620689655178 12.125998753057427,20.586206896551765 13.907285022301107,20.922413793103477 C13.566745000239816,21.051724137931064 13.226204978178524,21.051724137931064 12.833274183492417,21.051724137931064 C12.623711092993162,21.051724137931064 12.36175722986909,21.051724137931064 12.152194139369833,20.922413793103477 C12.623711092993162,22.422413793103466 14.038261953863143,23.612068965517267 15.819548223106825,23.612068965517267 C14.535974293798876,24.672413793103477 12.885664956117232,25.24137931034484 11.025792527936328,25.24137931034484 C10.685252505875036,25.24137931034484 10.423298642750966,25.24137931034484 10.082758620689674,25.24137931034484 C11.864044889933355,26.301724137931053 13.828698863363886,27 15.898134382044045,27 C22.892302527456735,27 26.821610474317797,21.25862068965516 26.821610474317797,16.2155172413793 C26.821610474317797,16.08620689655171 26.821610474317797,15.879310344827587 26.821610474317797,15.75 "/>
  </defs>
  <g>
    <g opacity="1">
      <use xlink:href="#path-0" fill="rgb(255,255,255)" fill-opacity="1"/>
    </g>
  </g>
</svg>
