<?xml version="1.0" encoding="utf-8"?>
<svg id="target" version="1.1" xmlns="http://www.w3.org/2000/svg" xmlns:xlink="http://www.w3.org/1999/xlink" height="40" width="40">
  <defs>
    <path id="path-0" opacity="1" d="M24.73424657534244,14.180821917808316 C24.14246575342463,14.180821917808316 23.673972602739696,14.673972602739823 23.673972602739696,15.241095890411044 C23.673972602739696,15.783561643835712 24.167123287671203,16.301369863013772 24.73424657534244,16.301369863013772 C25.326027397260248,16.301369863013772 25.794520547945183,15.808219178082265 25.794520547945183,15.241095890411044 C25.794520547945183,14.673972602739823 25.326027397260248,14.180821917808316 24.73424657534244,14.180821917808316 L24.73424657534244,14.180821917808316ZM20.000000000000085,17.041095890410816 C21.62739726027405,17.041095890410816 22.958904109589128,18.372602739725878 22.958904109589128,19.999999999999858 C22.958904109589128,21.627397260273835 21.60273972602748,22.958904109588897 20.000000000000085,22.958904109588897 C18.39726027397269,22.958904109588897 17.041095890411043,21.627397260273835 17.041095890411043,19.999999999999858 C17.041095890411043,18.372602739725878 18.372602739726105,17.041095890410816 20.000000000000085,17.041095890410816 L20.000000000000085,17.041095890410816ZM19.999999999999986,15.43835616438355 C17.50958904109588,15.43835616438355 15.43835616438355,17.484931506849293 15.43835616438355,19.999999999999986 C15.43835616438355,22.51506849315068 17.50958904109588,24.561643835616422 19.999999999999986,24.561643835616422 C22.490410958904093,24.561643835616422 24.561643835616422,22.51506849315068 24.561643835616422,19.999999999999986 C24.561643835616422,17.484931506849293 22.51506849315068,15.43835616438355 19.999999999999986,15.43835616438355 L19.999999999999986,15.43835616438355ZM20.000000000000156,12.726027397260168 C22.36712328767139,12.726027397260168 22.687671232876866,12.726027397260168 23.60000000000015,12.77534246575333 C25.967123287671384,12.873972602739626 27.150684931507,14.057534246575258 27.273972602739875,16.44931506849305 C27.323287671233032,17.41095890410948 27.323287671233032,17.682191780821817 27.323287671233032,20.04931506849305 C27.323287671233032,22.416438356164292 27.323287671233032,22.73698630136976 27.273972602739875,23.649315068493056 C27.175342465753573,26.016438356164294 26.041095890411114,27.1999999999999 23.60000000000015,27.323287671232777 C22.638356164383723,27.372602739725938 22.36712328767139,27.372602739725938 20.000000000000156,27.372602739725938 C17.632876712328923,27.372602739725938 17.312328767123446,27.372602739725938 16.400000000000162,27.323287671232777 C14.032876712328928,27.224657534246482 12.849315068493311,26.041095890410848 12.726027397260438,23.649315068493056 C12.67671232876728,22.687671232876625 12.67671232876728,22.416438356164292 12.67671232876728,20.04931506849305 C12.67671232876728,17.682191780821817 12.67671232876728,17.36164383561635 12.726027397260424,16.44931506849305 C12.824657534246725,14.082191780821812 13.958904109589199,12.898630136986206 16.400000000000162,12.77534246575333 C17.33698630137002,12.726027397260168 17.632876712328923,12.726027397260168 20.000000000000156,12.726027397260168 L20.000000000000156,12.726027397260168ZM20.00000000000003,11.123287671232902 C17.632876712328795,11.123287671232902 17.26301369863016,11.123287671232902 16.32602739726029,11.172602739726063 C13.09589041095893,11.345205479452103 11.320547945205504,13.12054794520551 11.172602739726045,16.326027397260304 C11.123287671232902,17.28767123287674 11.123287671232902,17.608219178082233 11.123287671232902,20.00000000000003 C11.123287671232902,22.367123287671266 11.123287671232902,22.736986301369896 11.172602739726045,23.67397260273975 C11.345205479452076,26.904109589041123 13.120547945205502,28.67945205479453 16.32602739726029,28.82739726027399 C17.287671232876733,28.87671232876715 17.60821917808221,28.87671232876715 20.00000000000003,28.87671232876715 C22.391780821917834,28.87671232876715 22.736986301369882,28.87671232876715 23.673972602739752,28.82739726027399 C26.904109589041113,28.654794520547952 28.679452054794538,26.879452054794545 28.827397260273983,23.67397260273975 C28.87671232876714,22.712328767123317 28.87671232876714,22.39178082191782 28.87671232876714,20.00000000000003 C28.87671232876714,17.632876712328788 28.87671232876714,17.263013698630157 28.827397260273983,16.326027397260304 C28.654794520547966,13.09589041095893 26.87945205479454,11.32054794520552 23.673972602739752,11.172602739726063 C22.736986301369882,11.123287671232902 22.391780821917834,11.123287671232902 20.00000000000003,11.123287671232902 L20.00000000000003,11.123287671232902Z"/>
  </defs>
  <g>
    <g opacity="1">
      <use xlink:href="#path-0" fill="rgb(255,255,255)" fill-opacity="1"/>
    </g>
  </g>
</svg>
