<svg width="158" height="90" viewBox="0 0 158 90" xmlns="http://www.w3.org/2000/svg"><title>logo-dff</title><g fill="#FFF" fill-rule="evenodd"><path d="M54.828 68.112h-4.092v2.064h3.816v1.548h-3.816V75H49.02v-8.472h5.808v1.584zm5.676.576h1.584V75H60.6v-.648c-.432.516-1.044.84-1.848.84-1.296 0-2.268-.9-2.508-1.8v-4.704h1.584v4.308c.156.372.576.744 1.344.744.72 0 1.2-.408 1.332-.768v-4.284zm6.864-.192c1.32 0 2.292.876 2.532 1.764V75h-1.584v-4.332c-.156-.36-.624-.732-1.38-.732-.732 0-1.224.396-1.356.744V75h-1.584v-6.312h1.488v.648c.444-.516 1.068-.84 1.884-.84zm8.928-2.256h1.584V75h-1.5v-.636c-.468.516-1.14.828-1.98.828-1.44 0-2.532-.912-2.904-2.052v-2.616c.372-1.14 1.464-2.04 2.904-2.04.792 0 1.428.276 1.896.72V66.24zm0 6.708v-2.22c-.252-.408-.804-.792-1.584-.792-.876 0-1.452.516-1.632.984v1.836c.18.48.756.996 1.632.996.78 0 1.332-.384 1.584-.804zM55.476 17.174c3.654 0 6.594 2.1 7.518 4.83v5.166C62.07 29.9 59.13 32 55.476 32h-5.691V17.174h5.691zm4.473 9.219v-3.612c-.441-1.491-2.247-2.835-4.473-2.835h-2.688v9.282h2.688c2.226 0 4.032-1.344 4.473-2.835zm14.196 1.827l2.499.966c-.882 1.953-2.856 3.15-5.46 3.15-2.772 0-4.851-1.575-5.544-3.591v-4.578c.693-1.995 2.73-3.57 5.481-3.57 2.709 0 4.725 1.575 5.439 3.57v3.213h-8.211v.819c.273.798 1.281 1.722 2.856 1.722 1.659 0 2.541-.84 2.94-1.701zM71.1 22.991c-1.491 0-2.478.882-2.751 1.701v.609h5.502v-.609c-.294-.819-1.26-1.701-2.751-1.701zm12.516 9.324c-2.394 0-4.326-1.092-4.977-2.856l2.373-.966c.504.966 1.533 1.47 2.604 1.47 1.029 0 1.659-.357 1.911-.798v-.756c-.147-.294-.483-.483-.987-.63-.777-.21-1.953-.21-3.066-.567-1.218-.399-2.016-1.071-2.457-1.953v-2.247c.651-1.302 2.394-2.394 4.557-2.394 2.331 0 4.116 1.092 4.767 2.772l-2.352.924c-.504-.903-1.365-1.344-2.436-1.344-.945 0-1.617.378-1.827.84v.63c.105.294.42.504.924.63.735.189 1.974.189 3.045.546 1.26.42 2.1 1.092 2.499 1.953v2.352c-.63 1.323-2.352 2.394-4.578 2.394zM92.394 19.4c-.798 0-1.407-.357-1.701-.861v-1.407c.294-.504.903-.861 1.701-.861.819 0 1.428.357 1.701.861v1.407c-.273.504-.882.861-1.701.861zM91.008 32V20.954h2.772V32h-2.772zm14.112-11.046h2.604v11.445c-.735 2.037-2.772 3.507-5.628 3.507-2.667 0-4.746-1.239-5.502-3.234l2.583-.84c.336.798 1.281 1.659 2.961 1.659 1.533 0 2.52-.798 2.814-1.68V30.11c-.819.735-1.911 1.197-3.255 1.197-2.52 0-4.368-1.554-4.998-3.444v-3.738c.63-1.974 2.478-3.507 4.998-3.507 1.428 0 2.583.504 3.423 1.344v-1.008zm-2.835 7.875c1.323 0 2.268-.693 2.667-1.407v-2.877c-.399-.714-1.344-1.386-2.667-1.386-1.512 0-2.541.84-2.814 1.638v2.394c.273.798 1.302 1.638 2.814 1.638zm14.616-8.211c2.31 0 4.011 1.533 4.431 3.087V32h-2.772v-7.581c-.273-.63-1.092-1.281-2.415-1.281-1.281 0-2.142.693-2.373 1.302V32H111V20.954h2.604v1.134c.777-.903 1.869-1.47 3.297-1.47zM59.949 44.946h-7.161v3.612h6.678v2.709h-6.678V57h-3.003V42.174h10.164v2.772zm7.917 12.39c-2.793 0-4.956-1.554-5.67-3.57v-4.599c.714-1.995 2.877-3.57 5.67-3.57s4.935 1.575 5.649 3.57v4.599c-.714 2.016-2.856 3.57-5.649 3.57zm0-2.52c1.533 0 2.604-.903 2.877-1.722V49.86c-.273-.84-1.344-1.743-2.877-1.743-1.533 0-2.604.903-2.898 1.743v3.234c.294.819 1.365 1.722 2.898 1.722zm14.175-9.03c.315 0 .714.063.945.168v2.688h-.735c-1.953 0-2.793.924-3.045 1.617V57h-2.772V45.954h2.604v1.743c.546-1.071 1.491-1.911 3.003-1.911zm17.157.168h2.709v.525L98.463 57h-2.961l-2.289-7.266L90.924 57h-2.982l-3.465-10.521v-.525h2.772l2.331 7.518 2.373-7.518h2.541l2.394 7.476 2.31-7.476zm9.681-.357c2.436 0 4.431 1.239 5.061 3.003V57h-2.541v-1.113c-.735.903-1.911 1.428-3.318 1.428-2.058 0-3.591-.945-4.116-2.037v-2.583c.63-1.344 2.352-1.974 4.284-2.226 1.89-.231 2.772-.399 2.982-.714v-.504c-.315-.609-1.113-1.176-2.373-1.176a3.009 3.009 0 0 0-2.709 1.638l-2.457-1.05c.735-1.701 2.751-3.066 5.187-3.066zm2.352 8.337v-2.226c-.378.315-1.281.567-2.52.798-1.281.231-1.827.462-2.079.903v.903c.336.399.924.735 2.058.735 1.113 0 2.079-.462 2.541-1.113zm11.508-8.148c.315 0 .714.063.945.168v2.688h-.735c-1.953 0-2.793.924-3.045 1.617V57h-2.772V45.954h2.604v1.743c.546-1.071 1.491-1.911 3.003-1.911zm11.088-4.116h2.772V57h-2.625v-1.113c-.819.903-1.995 1.449-3.465 1.449-2.52 0-4.431-1.596-5.082-3.591v-4.578c.651-1.995 2.562-3.57 5.082-3.57 1.386 0 2.499.483 3.318 1.26V41.67zm0 11.739v-3.885c-.441-.714-1.407-1.386-2.772-1.386-1.533 0-2.541.903-2.856 1.722v3.213c.315.84 1.323 1.743 2.856 1.743 1.365 0 2.331-.672 2.772-1.407z"/><path d="M0 0h16v16L0 0zm0 16h16v16L0 16zm0 16h16v16L0 32zM16 0h16v16L16 0zm0 16h16v16L16 16z" fill-rule="nonzero"/></g></svg>