<svg xmlns="http://www.w3.org/2000/svg" xmlns:xlink="http://www.w3.org/1999/xlink" height="40" width="40"><defs><path id="a" opacity="1" d="M24.734 14.18c-.592 0-1.06.494-1.06 1.061 0 .543.493 1.06 1.06 1.06.592 0 1.06-.493 1.06-1.06 0-.567-.468-1.06-1.06-1.06zM20 17.042A2.968 2.968 0 0 1 22.959 20c0 1.627-1.356 2.959-2.959 2.959S17.041 21.627 17.041 20A2.968 2.968 0 0 1 20 17.041zm0-1.603c-2.49 0-4.562 2.047-4.562 4.562S17.51 24.562 20 24.562s4.562-2.047 4.562-4.562A4.567 4.567 0 0 0 20 15.438zm0-2.712c2.367 0 2.688 0 3.6.05 2.367.098 3.55 1.282 3.674 3.673.05.962.05 1.233.05 3.6s0 2.688-.05 3.6c-.099 2.367-1.233 3.551-3.674 3.674-.962.05-1.233.05-3.6.05s-2.688 0-3.6-.05c-2.367-.098-3.55-1.282-3.674-3.674-.05-.961-.05-1.233-.05-3.6s0-2.687.05-3.6c.099-2.367 1.233-3.55 3.674-3.674.937-.049 1.233-.049 3.6-.049zm0-1.603c-2.367 0-2.737 0-3.674.05-3.23.172-5.005 1.948-5.153 5.153-.05.962-.05 1.282-.05 3.674 0 2.367 0 2.737.05 3.674.172 3.23 1.948 5.005 5.153 5.153.962.05 1.282.05 3.674.05s2.737 0 3.674-.05c3.23-.172 5.005-1.948 5.153-5.153.05-.962.05-1.282.05-3.674 0-2.367 0-2.737-.05-3.674-.172-3.23-1.948-5.005-5.153-5.153-.937-.05-1.282-.05-3.674-.05z"/></defs><use xlink:href="#a" fill="#FFF"/></svg>