<svg viewBox="0 0 40 40" xmlns="http://www.w3.org/2000/svg" xmlns:xlink="http://www.w3.org/1999/xlink"><defs><path id="a" opacity="1" d="M28.917 13.707c-.68.336-1.414.465-2.253.595.812-.466 1.415-1.138 1.65-2.095-.68.465-1.519.672-2.462.93-.68-.671-1.78-1.137-2.855-1.137-2.122 0-3.877 1.759-3.877 3.828 0 .336 0 .594.131.801-3.196-.129-5.946-1.629-7.937-3.957-.34.595-.472 1.138-.472 1.862 0 1.268.682 2.432 1.782 3.156-.603 0-1.153-.207-1.782-.466 0 1.862 1.284 3.362 3.065 3.698-.34.13-.68.13-1.074.13-.21 0-.471 0-.68-.13a3.845 3.845 0 0 0 3.667 2.69c-1.284 1.06-2.934 1.63-4.794 1.63h-.943C11.864 26.301 13.829 27 15.898 27c6.994 0 10.924-5.741 10.924-10.784v-.466"/></defs><use xlink:href="#a" fill="#FFF"/></svg>