<svg xmlns="http://www.w3.org/2000/svg" xmlns:xlink="http://www.w3.org/1999/xlink" height="40" width="40"><defs><path id="a" opacity="1" d="M17.396 15.97l6.517 3.9-6.517 3.955v-7.854zm2.619-3.84s-4.364 0-7.331.205c-.408.058-1.28.058-2.095.93-.669.67-.873 2.211-.873 2.211s-.203 1.804-.203 3.637V20.8c0 1.804.203 3.636.203 3.636s.204 1.542.873 2.211c.815.931 1.804.873 2.27 1.018 1.686.204 7.126.204 7.126.204s4.364 0 7.331-.262c.408-.058 1.28-.058 2.095-.93.669-.67.873-2.212.873-2.212s.203-1.803.203-3.636v-1.716c0-1.891-.203-3.637-.203-3.637s-.204-1.541-.873-2.21c-.815-.931-1.687-.931-2.095-.931-2.938-.204-7.301-.204-7.301-.204z"/></defs><use xlink:href="#a" fill="#FFF"/></svg>