<svg xmlns="http://www.w3.org/2000/svg" xmlns:xlink="http://www.w3.org/1999/xlink" height="40" width="40"><defs><path id="a" opacity="1" d="M27.304 12H12.696c-.348 0-.696.348-.696.696v14.608c0 .348.278.696.696.696h7.791v-5.983H18.47v-2.504h2.017v-2.017c0-2.087 1.322-3.061 3.13-3.061.905 0 1.6.07 1.879.07v2.156h-1.253c-.973 0-1.252.487-1.252 1.182v1.67h2.505l-.487 2.504H22.99l.07 5.983h4.243a.697.697 0 0 0 .696-.696V12.696c-.07-.348-.348-.696-.696-.696z"/></defs><use xlink:href="#a" fill="#FFF"/></svg>